<?xml version="1.0" standalone="no"?>
<!DOCTYPE svg PUBLIC "-//W3C//DTD SVG 20010904//EN"
 "http://www.w3.org/TR/2001/REC-SVG-20010904/DTD/svg10.dtd">
<svg version="1.0" xmlns="http://www.w3.org/2000/svg"
 width="32.000000pt" height="32.000000pt" viewBox="0 0 32.000000 32.000000"
 preserveAspectRatio="xMidYMid meet">

<g transform="translate(0.000000,32.000000) scale(0.100000,-0.100000)"
fill="#000000" stroke="none">
<path d="M122 208 c3 -7 24 -14 49 -16 41 -2 43 -1 25 13 -24 19 -79 20 -74 3z"/>
<path d="M255 110 c0 -49 0 -49 20 -30 15 16 17 25 10 46 -16 45 -30 38 -30
-16z"/>
<path d="M100 115 c31 -18 73 -20 68 -2 -3 6 -24 13 -49 15 -43 2 -43 2 -19
-13z"/>
</g>
</svg>
